<?xml version="1.0" encoding="utf-8"?>
<!-- Generator: Adobe Illustrator 22.1.0, SVG Export Plug-In . SVG Version: 6.00 Build 0)  -->
<svg version="1.1" id="Calque_1" xmlns="http://www.w3.org/2000/svg" xmlns:xlink="http://www.w3.org/1999/xlink" x="0px" y="0px"
	 viewBox="0 0 25 25" style="enable-background:new 0 0 25 25;" xml:space="preserve">
<style type="text/css">
	.st0{fill:#48C0FF;}
</style>
<g>
	<g>
		<path class="st0" d="M7.6,7.3h10.4c-0.1-1.1-0.5-1.9-1.5-2.2c0,0-0.1,0-0.1,0c-0.7-0.2-1.1-0.4-1.1-1.1V2.8c0-1.4-1.1-2.5-2.5-2.5
			c-1.4,0-2.5,1.1-2.5,2.5v1.1c0,0.7-0.5,0.9-1.1,1.1c0,0,0,0-0.1,0C8.2,5.4,7.8,6.2,7.6,7.3z M13,2.1c0.3,0.1,0.5,0.3,0.6,0.6
			c0.1,0.5-0.3,0.9-0.7,0.9c-0.4,0-0.7-0.3-0.7-0.8C12.1,2.3,12.5,2,13,2.1z"/>
		<path class="st0" d="M20.9,2h-4v0.8c0,0.6,0.5,1,1.1,1h2c0.4,0,0.7,0.3,0.7,0.7l0,17.8c0,0.3-0.3,0.6-0.6,0.7l-14.3,0
			c-0.3,0-0.6-0.3-0.6-0.7L5,4.5c0-0.4,0.3-0.7,0.7-0.7h2c0.6,0,1-0.5,1-1V2H4.8C4,2,3.3,2.7,3.3,3.6v19.6c0,0.8,0.7,1.6,1.5,1.6
			h8.1h8.1c0.8,0,1.5-0.7,1.5-1.6V3.6C22.4,2.7,21.8,2,20.9,2z"/>
		<rect x="6.7" y="9" class="st0" width="6.1" height="1.7"/>
		<rect x="6.7" y="19.5" class="st0" width="8.7" height="1.7"/>
		<rect x="6.7" y="16" class="st0" width="7" height="1.7"/>
		<rect x="6.7" y="12.5" class="st0" width="11.3" height="1.7"/>
	</g>
</g>
</svg>
